<svg width="727" height="1024" viewBox="0 0 727 1024" fill="none" xmlns="http://www.w3.org/2000/svg">
<g clip-path="url(#clip0_1014_4779)">
<path d="M727 0H0V1024H727V0Z" fill="#0E277A"/>
<path d="M157.61 -71.72L233.83 -27.72V60.28L157.61 104.28L81.4 60.28V-27.72L157.61 -71.72ZM157.61 720.28L233.83 764.28V852.28L157.61 896.28L81.4 852.28V764.28L157.61 720.28ZM386.25 588.28L462.46 632.28V720.28L386.25 764.28L310.04 720.28V632.28L386.25 588.28ZM386.25 852.28L462.46 896.28V984.28L386.25 1028.28L310.04 984.28V896.28L386.25 852.28ZM462.46 192.28L538.68 236.28V324.28L462.46 368.28L386.25 324.28V236.28L462.46 192.28ZM462.46 456.28L538.68 500.28V588.28L462.46 632.28L386.25 588.28V500.28L462.46 456.28ZM462.46 720.28L538.68 764.28V852.28L462.46 896.28L386.25 852.28V764.28L462.46 720.28ZM691.1 60.28L767.31 104.28V192.28L691.1 236.28L614.89 192.28V104.28L691.1 60.28ZM614.89 720.28L691.1 764.28V852.28L614.89 896.28L538.68 852.28V764.28L614.89 720.28Z" stroke="#1438AE" stroke-width="2"/>
<path d="M148.81 -71.72C148.81 -69.3861 149.737 -67.1478 151.387 -65.4975C153.038 -63.8471 155.276 -62.92 157.61 -62.92C159.944 -62.92 162.182 -63.8471 163.833 -65.4975C165.483 -67.1478 166.41 -69.3861 166.41 -71.72C166.41 -74.0539 165.483 -76.2922 163.833 -77.9425C162.182 -79.5929 159.944 -80.52 157.61 -80.52C155.276 -80.52 153.038 -79.5929 151.387 -77.9425C149.737 -76.2922 148.81 -74.0539 148.81 -71.72V-71.72ZM225.03 -27.72C225.03 -25.3861 225.957 -23.1478 227.607 -21.4975C229.258 -19.8471 231.496 -18.92 233.83 -18.92C236.164 -18.92 238.402 -19.8471 240.053 -21.4975C241.703 -23.1478 242.63 -25.3861 242.63 -27.72C242.63 -30.0539 241.703 -32.2922 240.053 -33.9425C238.402 -35.5929 236.164 -36.52 233.83 -36.52C231.496 -36.52 229.258 -35.5929 227.607 -33.9425C225.957 -32.2922 225.03 -30.0539 225.03 -27.72V-27.72ZM225.03 60.28C225.03 62.6139 225.957 64.8522 227.607 66.5025C229.258 68.1529 231.496 69.08 233.83 69.08C236.164 69.08 238.402 68.1529 240.053 66.5025C241.703 64.8522 242.63 62.6139 242.63 60.28C242.63 57.9461 241.703 55.7078 240.053 54.0575C238.402 52.4071 236.164 51.48 233.83 51.48C231.496 51.48 229.258 52.4071 227.607 54.0575C225.957 55.7078 225.03 57.9461 225.03 60.28V60.28ZM148.81 104.28C148.81 106.614 149.737 108.852 151.387 110.503C153.038 112.153 155.276 113.08 157.61 113.08C159.944 113.08 162.182 112.153 163.833 110.503C165.483 108.852 166.41 106.614 166.41 104.28C166.41 101.946 165.483 99.7078 163.833 98.0575C162.182 96.4071 159.944 95.48 157.61 95.48C155.276 95.48 153.038 96.4071 151.387 98.0575C149.737 99.7078 148.81 101.946 148.81 104.28V104.28ZM72.6 60.28C72.6 62.6139 73.5271 64.8522 75.1775 66.5025C76.8278 68.1529 79.0661 69.08 81.4 69.08C83.7339 69.08 85.9722 68.1529 87.6226 66.5025C89.2729 64.8522 90.2 62.6139 90.2 60.28C90.2 57.9461 89.2729 55.7078 87.6226 54.0575C85.9722 52.4071 83.7339 51.48 81.4 51.48C79.0661 51.48 76.8278 52.4071 75.1775 54.0575C73.5271 55.7078 72.6 57.9461 72.6 60.28ZM72.6 -27.72C72.6 -25.3861 73.5271 -23.1478 75.1775 -21.4975C76.8278 -19.8471 79.0661 -18.92 81.4 -18.92C83.7339 -18.92 85.9722 -19.8471 87.6226 -21.4975C89.2729 -23.1478 90.2 -25.3861 90.2 -27.72C90.2 -30.0539 89.2729 -32.2922 87.6226 -33.9425C85.9722 -35.5929 83.7339 -36.52 81.4 -36.52C79.0661 -36.52 76.8278 -35.5929 75.1775 -33.9425C73.5271 -32.2922 72.6 -30.0539 72.6 -27.72V-27.72ZM148.81 720.28C148.81 722.614 149.737 724.852 151.387 726.503C153.038 728.153 155.276 729.08 157.61 729.08C159.944 729.08 162.182 728.153 163.833 726.503C165.483 724.852 166.41 722.614 166.41 720.28C166.41 717.946 165.483 715.708 163.833 714.057C162.182 712.407 159.944 711.48 157.61 711.48C155.276 711.48 153.038 712.407 151.387 714.057C149.737 715.708 148.81 717.946 148.81 720.28ZM225.03 764.28C225.03 766.614 225.957 768.852 227.607 770.503C229.258 772.153 231.496 773.08 233.83 773.08C236.164 773.08 238.402 772.153 240.053 770.503C241.703 768.852 242.63 766.614 242.63 764.28C242.63 761.946 241.703 759.708 240.053 758.057C238.402 756.407 236.164 755.48 233.83 755.48C231.496 755.48 229.258 756.407 227.607 758.057C225.957 759.708 225.03 761.946 225.03 764.28V764.28ZM225.03 852.28C225.03 854.614 225.957 856.852 227.607 858.503C229.258 860.153 231.496 861.08 233.83 861.08C236.164 861.08 238.402 860.153 240.053 858.503C241.703 856.852 242.63 854.614 242.63 852.28C242.63 849.946 241.703 847.708 240.053 846.057C238.402 844.407 236.164 843.48 233.83 843.48C231.496 843.48 229.258 844.407 227.607 846.057C225.957 847.708 225.03 849.946 225.03 852.28V852.28ZM148.81 896.28C148.81 898.614 149.737 900.852 151.387 902.503C153.038 904.153 155.276 905.08 157.61 905.08C159.944 905.08 162.182 904.153 163.833 902.503C165.483 900.852 166.41 898.614 166.41 896.28C166.41 893.946 165.483 891.708 163.833 890.057C162.182 888.407 159.944 887.48 157.61 887.48C155.276 887.48 153.038 888.407 151.387 890.057C149.737 891.708 148.81 893.946 148.81 896.28ZM72.6 852.28C72.6 854.614 73.5271 856.852 75.1775 858.503C76.8278 860.153 79.0661 861.08 81.4 861.08C83.7339 861.08 85.9722 860.153 87.6226 858.503C89.2729 856.852 90.2 854.614 90.2 852.28C90.2 849.946 89.2729 847.708 87.6226 846.057C85.9722 844.407 83.7339 843.48 81.4 843.48C79.0661 843.48 76.8278 844.407 75.1775 846.057C73.5271 847.708 72.6 849.946 72.6 852.28ZM72.6 764.28C72.6 766.614 73.5271 768.852 75.1775 770.503C76.8278 772.153 79.0661 773.08 81.4 773.08C83.7339 773.08 85.9722 772.153 87.6226 770.503C89.2729 768.852 90.2 766.614 90.2 764.28C90.2 761.946 89.2729 759.708 87.6226 758.057C85.9722 756.407 83.7339 755.48 81.4 755.48C79.0661 755.48 76.8278 756.407 75.1775 758.057C73.5271 759.708 72.6 761.946 72.6 764.28ZM377.45 588.28C377.45 590.614 378.377 592.852 380.027 594.503C381.678 596.153 383.916 597.08 386.25 597.08C388.584 597.08 390.822 596.153 392.473 594.503C394.123 592.852 395.05 590.614 395.05 588.28C395.05 585.946 394.123 583.708 392.473 582.057C390.822 580.407 388.584 579.48 386.25 579.48C383.916 579.48 381.678 580.407 380.027 582.057C378.377 583.708 377.45 585.946 377.45 588.28ZM453.66 632.28C453.66 634.614 454.587 636.852 456.237 638.503C457.888 640.153 460.126 641.08 462.46 641.08C464.794 641.08 467.032 640.153 468.683 638.503C470.333 636.852 471.26 634.614 471.26 632.28C471.26 629.946 470.333 627.708 468.683 626.057C467.032 624.407 464.794 623.48 462.46 623.48C460.126 623.48 457.888 624.407 456.237 626.057C454.587 627.708 453.66 629.946 453.66 632.28ZM453.66 720.28C453.66 722.614 454.587 724.852 456.237 726.503C457.888 728.153 460.126 729.08 462.46 729.08C464.794 729.08 467.032 728.153 468.683 726.503C470.333 724.852 471.26 722.614 471.26 720.28C471.26 717.946 470.333 715.708 468.683 714.057C467.032 712.407 464.794 711.48 462.46 711.48C460.126 711.48 457.888 712.407 456.237 714.057C454.587 715.708 453.66 717.946 453.66 720.28ZM377.45 764.28C377.45 766.614 378.377 768.852 380.027 770.503C381.678 772.153 383.916 773.08 386.25 773.08C388.584 773.08 390.822 772.153 392.473 770.503C394.123 768.852 395.05 766.614 395.05 764.28C395.05 761.946 394.123 759.708 392.473 758.057C390.822 756.407 388.584 755.48 386.25 755.48C383.916 755.48 381.678 756.407 380.027 758.057C378.377 759.708 377.45 761.946 377.45 764.28V764.28ZM301.24 720.28C301.24 722.614 302.167 724.852 303.817 726.503C305.468 728.153 307.706 729.08 310.04 729.08C312.374 729.08 314.612 728.153 316.263 726.503C317.913 724.852 318.84 722.614 318.84 720.28C318.84 717.946 317.913 715.708 316.263 714.057C314.612 712.407 312.374 711.48 310.04 711.48C307.706 711.48 305.468 712.407 303.817 714.057C302.167 715.708 301.24 717.946 301.24 720.28ZM301.24 632.28C301.24 634.614 302.167 636.852 303.817 638.503C305.468 640.153 307.706 641.08 310.04 641.08C312.374 641.08 314.612 640.153 316.263 638.503C317.913 636.852 318.84 634.614 318.84 632.28C318.84 629.946 317.913 627.708 316.263 626.057C314.612 624.407 312.374 623.48 310.04 623.48C307.706 623.48 305.468 624.407 303.817 626.057C302.167 627.708 301.24 629.946 301.24 632.28ZM377.45 852.28C377.45 854.614 378.377 856.852 380.027 858.503C381.678 860.153 383.916 861.08 386.25 861.08C388.584 861.08 390.822 860.153 392.473 858.503C394.123 856.852 395.05 854.614 395.05 852.28C395.05 849.946 394.123 847.708 392.473 846.057C390.822 844.407 388.584 843.48 386.25 843.48C383.916 843.48 381.678 844.407 380.027 846.057C378.377 847.708 377.45 849.946 377.45 852.28V852.28ZM453.66 896.28C453.66 898.614 454.587 900.852 456.237 902.503C457.888 904.153 460.126 905.08 462.46 905.08C464.794 905.08 467.032 904.153 468.683 902.503C470.333 900.852 471.26 898.614 471.26 896.28C471.26 893.946 470.333 891.708 468.683 890.057C467.032 888.407 464.794 887.48 462.46 887.48C460.126 887.48 457.888 888.407 456.237 890.057C454.587 891.708 453.66 893.946 453.66 896.28ZM453.66 984.28C453.66 986.614 454.587 988.852 456.237 990.503C457.888 992.153 460.126 993.08 462.46 993.08C464.794 993.08 467.032 992.153 468.683 990.503C470.333 988.852 471.26 986.614 471.26 984.28C471.26 981.946 470.333 979.708 468.683 978.057C467.032 976.407 464.794 975.48 462.46 975.48C460.126 975.48 457.888 976.407 456.237 978.057C454.587 979.708 453.66 981.946 453.66 984.28ZM377.45 1028.28C377.45 1030.61 378.377 1032.85 380.027 1034.5C381.678 1036.15 383.916 1037.08 386.25 1037.08C388.584 1037.08 390.822 1036.15 392.473 1034.5C394.123 1032.85 395.05 1030.61 395.05 1028.28C395.05 1025.95 394.123 1023.71 392.473 1022.06C390.822 1020.41 388.584 1019.48 386.25 1019.48C383.916 1019.48 381.678 1020.41 380.027 1022.06C378.377 1023.71 377.45 1025.95 377.45 1028.28ZM301.24 984.28C301.24 986.614 302.167 988.852 303.817 990.503C305.468 992.153 307.706 993.08 310.04 993.08C312.374 993.08 314.612 992.153 316.263 990.503C317.913 988.852 318.84 986.614 318.84 984.28C318.84 981.946 317.913 979.708 316.263 978.057C314.612 976.407 312.374 975.48 310.04 975.48C307.706 975.48 305.468 976.407 303.817 978.057C302.167 979.708 301.24 981.946 301.24 984.28ZM301.24 896.28C301.24 898.614 302.167 900.852 303.817 902.503C305.468 904.153 307.706 905.08 310.04 905.08C312.374 905.08 314.612 904.153 316.263 902.503C317.913 900.852 318.84 898.614 318.84 896.28C318.84 893.946 317.913 891.708 316.263 890.057C314.612 888.407 312.374 887.48 310.04 887.48C307.706 887.48 305.468 888.407 303.817 890.057C302.167 891.708 301.24 893.946 301.24 896.28ZM453.66 192.28C453.66 194.614 454.587 196.852 456.237 198.503C457.888 200.153 460.126 201.08 462.46 201.08C464.794 201.08 467.032 200.153 468.683 198.503C470.333 196.852 471.26 194.614 471.26 192.28C471.26 189.946 470.333 187.708 468.683 186.057C467.032 184.407 464.794 183.48 462.46 183.48C460.126 183.48 457.888 184.407 456.237 186.057C454.587 187.708 453.66 189.946 453.66 192.28ZM529.88 236.28C529.88 238.614 530.807 240.852 532.457 242.503C534.108 244.153 536.346 245.08 538.68 245.08C541.014 245.08 543.252 244.153 544.903 242.503C546.553 240.852 547.48 238.614 547.48 236.28C547.48 233.946 546.553 231.708 544.903 230.057C543.252 228.407 541.014 227.48 538.68 227.48C536.346 227.48 534.108 228.407 532.457 230.057C530.807 231.708 529.88 233.946 529.88 236.28V236.28ZM529.88 324.28C529.88 326.614 530.807 328.852 532.457 330.503C534.108 332.153 536.346 333.08 538.68 333.08C541.014 333.08 543.252 332.153 544.903 330.503C546.553 328.852 547.48 326.614 547.48 324.28C547.48 321.946 546.553 319.708 544.903 318.057C543.252 316.407 541.014 315.48 538.68 315.48C536.346 315.48 534.108 316.407 532.457 318.057C530.807 319.708 529.88 321.946 529.88 324.28V324.28ZM453.66 368.28C453.66 370.614 454.587 372.852 456.237 374.503C457.888 376.153 460.126 377.08 462.46 377.08C464.794 377.08 467.032 376.153 468.683 374.503C470.333 372.852 471.26 370.614 471.26 368.28C471.26 365.946 470.333 363.708 468.683 362.057C467.032 360.407 464.794 359.48 462.46 359.48C460.126 359.48 457.888 360.407 456.237 362.057C454.587 363.708 453.66 365.946 453.66 368.28ZM377.45 324.28C377.45 326.614 378.377 328.852 380.027 330.503C381.678 332.153 383.916 333.08 386.25 333.08C388.584 333.08 390.822 332.153 392.473 330.503C394.123 328.852 395.05 326.614 395.05 324.28C395.05 321.946 394.123 319.708 392.473 318.057C390.822 316.407 388.584 315.48 386.25 315.48C383.916 315.48 381.678 316.407 380.027 318.057C378.377 319.708 377.45 321.946 377.45 324.28ZM377.45 236.28C377.45 238.614 378.377 240.852 380.027 242.503C381.678 244.153 383.916 245.08 386.25 245.08C388.584 245.08 390.822 244.153 392.473 242.503C394.123 240.852 395.05 238.614 395.05 236.28C395.05 233.946 394.123 231.708 392.473 230.057C390.822 228.407 388.584 227.48 386.25 227.48C383.916 227.48 381.678 228.407 380.027 230.057C378.377 231.708 377.45 233.946 377.45 236.28ZM453.66 456.28C453.66 458.614 454.587 460.852 456.237 462.503C457.888 464.153 460.126 465.08 462.46 465.08C464.794 465.08 467.032 464.153 468.683 462.503C470.333 460.852 471.26 458.614 471.26 456.28C471.26 453.946 470.333 451.708 468.683 450.057C467.032 448.407 464.794 447.48 462.46 447.48C460.126 447.48 457.888 448.407 456.237 450.057C454.587 451.708 453.66 453.946 453.66 456.28ZM529.88 500.28C529.88 502.614 530.807 504.852 532.457 506.503C534.108 508.153 536.346 509.08 538.68 509.08C541.014 509.08 543.252 508.153 544.903 506.503C546.553 504.852 547.48 502.614 547.48 500.28C547.48 497.946 546.553 495.708 544.903 494.057C543.252 492.407 541.014 491.48 538.68 491.48C536.346 491.48 534.108 492.407 532.457 494.057C530.807 495.708 529.88 497.946 529.88 500.28V500.28ZM529.88 588.28C529.88 590.614 530.807 592.852 532.457 594.503C534.108 596.153 536.346 597.08 538.68 597.08C541.014 597.08 543.252 596.153 544.903 594.503C546.553 592.852 547.48 590.614 547.48 588.28C547.48 585.946 546.553 583.708 544.903 582.057C543.252 580.407 541.014 579.48 538.68 579.48C536.346 579.48 534.108 580.407 532.457 582.057C530.807 583.708 529.88 585.946 529.88 588.28V588.28ZM377.45 500.28C377.45 502.614 378.377 504.852 380.027 506.503C381.678 508.153 383.916 509.08 386.25 509.08C388.584 509.08 390.822 508.153 392.473 506.503C394.123 504.852 395.05 502.614 395.05 500.28C395.05 497.946 394.123 495.708 392.473 494.057C390.822 492.407 388.584 491.48 386.25 491.48C383.916 491.48 381.678 492.407 380.027 494.057C378.377 495.708 377.45 497.946 377.45 500.28ZM529.88 764.28C529.88 766.614 530.807 768.852 532.457 770.503C534.108 772.153 536.346 773.08 538.68 773.08C541.014 773.08 543.252 772.153 544.903 770.503C546.553 768.852 547.48 766.614 547.48 764.28C547.48 761.946 546.553 759.708 544.903 758.057C543.252 756.407 541.014 755.48 538.68 755.48C536.346 755.48 534.108 756.407 532.457 758.057C530.807 759.708 529.88 761.946 529.88 764.28V764.28ZM529.88 852.28C529.88 854.614 530.807 856.852 532.457 858.503C534.108 860.153 536.346 861.08 538.68 861.08C541.014 861.08 543.252 860.153 544.903 858.503C546.553 856.852 547.48 854.614 547.48 852.28C547.48 849.946 546.553 847.708 544.903 846.057C543.252 844.407 541.014 843.48 538.68 843.48C536.346 843.48 534.108 844.407 532.457 846.057C530.807 847.708 529.88 849.946 529.88 852.28V852.28ZM682.3 60.28C682.3 62.6139 683.227 64.8522 684.877 66.5025C686.528 68.1529 688.766 69.08 691.1 69.08C693.434 69.08 695.672 68.1529 697.323 66.5025C698.973 64.8522 699.9 62.6139 699.9 60.28C699.9 57.9461 698.973 55.7078 697.323 54.0575C695.672 52.4071 693.434 51.48 691.1 51.48C688.766 51.48 686.528 52.4071 684.877 54.0575C683.227 55.7078 682.3 57.9461 682.3 60.28V60.28ZM758.51 104.28C758.51 106.614 759.437 108.852 761.087 110.503C762.738 112.153 764.976 113.08 767.31 113.08C769.644 113.08 771.882 112.153 773.533 110.503C775.183 108.852 776.11 106.614 776.11 104.28C776.11 101.946 775.183 99.7078 773.533 98.0575C771.882 96.4071 769.644 95.48 767.31 95.48C764.976 95.48 762.738 96.4071 761.087 98.0575C759.437 99.7078 758.51 101.946 758.51 104.28V104.28ZM758.51 192.28C758.51 194.614 759.437 196.852 761.087 198.503C762.738 200.153 764.976 201.08 767.31 201.08C769.644 201.08 771.882 200.153 773.533 198.503C775.183 196.852 776.11 194.614 776.11 192.28C776.11 189.946 775.183 187.708 773.533 186.057C771.882 184.407 769.644 183.48 767.31 183.48C764.976 183.48 762.738 184.407 761.087 186.057C759.437 187.708 758.51 189.946 758.51 192.28V192.28ZM682.3 236.28C682.3 238.614 683.227 240.852 684.877 242.503C686.528 244.153 688.766 245.08 691.1 245.08C693.434 245.08 695.672 244.153 697.323 242.503C698.973 240.852 699.9 238.614 699.9 236.28C699.9 233.946 698.973 231.708 697.323 230.057C695.672 228.407 693.434 227.48 691.1 227.48C688.766 227.48 686.528 228.407 684.877 230.057C683.227 231.708 682.3 233.946 682.3 236.28V236.28ZM606.09 192.28C606.09 194.614 607.017 196.852 608.668 198.503C610.318 200.153 612.556 201.08 614.89 201.08C617.224 201.08 619.462 200.153 621.113 198.503C622.763 196.852 623.69 194.614 623.69 192.28C623.69 189.946 622.763 187.708 621.113 186.057C619.462 184.407 617.224 183.48 614.89 183.48C612.556 183.48 610.318 184.407 608.668 186.057C607.017 187.708 606.09 189.946 606.09 192.28V192.28ZM606.09 104.28C606.09 106.614 607.017 108.852 608.668 110.503C610.318 112.153 612.556 113.08 614.89 113.08C617.224 113.08 619.462 112.153 621.113 110.503C622.763 108.852 623.69 106.614 623.69 104.28C623.69 101.946 622.763 99.7078 621.113 98.0575C619.462 96.4071 617.224 95.48 614.89 95.48C612.556 95.48 610.318 96.4071 608.668 98.0575C607.017 99.7078 606.09 101.946 606.09 104.28V104.28ZM606.09 720.28C606.09 722.614 607.017 724.852 608.668 726.503C610.318 728.153 612.556 729.08 614.89 729.08C617.224 729.08 619.462 728.153 621.113 726.503C622.763 724.852 623.69 722.614 623.69 720.28C623.69 717.946 622.763 715.708 621.113 714.057C619.462 712.407 617.224 711.48 614.89 711.48C612.556 711.48 610.318 712.407 608.668 714.057C607.017 715.708 606.09 717.946 606.09 720.28V720.28ZM682.3 764.28C682.3 766.614 683.227 768.852 684.877 770.503C686.528 772.153 688.766 773.08 691.1 773.08C693.434 773.08 695.672 772.153 697.323 770.503C698.973 768.852 699.9 766.614 699.9 764.28C699.9 761.946 698.973 759.708 697.323 758.057C695.672 756.407 693.434 755.48 691.1 755.48C688.766 755.48 686.528 756.407 684.877 758.057C683.227 759.708 682.3 761.946 682.3 764.28V764.28ZM682.3 852.28C682.3 854.614 683.227 856.852 684.877 858.503C686.528 860.153 688.766 861.08 691.1 861.08C693.434 861.08 695.672 860.153 697.323 858.503C698.973 856.852 699.9 854.614 699.9 852.28C699.9 849.946 698.973 847.708 697.323 846.057C695.672 844.407 693.434 843.48 691.1 843.48C688.766 843.48 686.528 844.407 684.877 846.057C683.227 847.708 682.3 849.946 682.3 852.28V852.28ZM606.09 896.28C606.09 898.614 607.017 900.852 608.668 902.503C610.318 904.153 612.556 905.08 614.89 905.08C617.224 905.08 619.462 904.153 621.113 902.503C622.763 900.852 623.69 898.614 623.69 896.28C623.69 893.946 622.763 891.708 621.113 890.057C619.462 888.407 617.224 887.48 614.89 887.48C612.556 887.48 610.318 888.407 608.668 890.057C607.017 891.708 606.09 893.946 606.09 896.28V896.28Z" fill="#1438AE"/>
<path d="M37.62 264.29L141.55 324.29V444.29L37.62 504.29L-66.31 444.29V324.29L37.62 264.29ZM245.47 -95.71L349.4 -35.71V84.29L245.47 144.29L141.55 84.29V-35.71L245.47 -95.71ZM453.32 -95.71L557.25 -35.71V84.29L453.32 144.29L349.4 84.29V-35.71L453.32 -95.71ZM453.32 264.29L557.25 324.29V444.29L453.32 504.29L349.4 444.29V324.29L453.32 264.29ZM661.18 264.29L765.1 324.29V444.29L661.18 504.29L557.25 444.29V324.29L661.18 264.29ZM661.18 624.29L765.1 684.29V804.29L661.18 864.29L557.25 804.29V684.29L661.18 624.29Z" stroke="#1F50EF" stroke-width="2"/>
<path d="M25.62 264.29C25.62 267.473 26.8843 270.525 29.1347 272.775C31.3852 275.026 34.4374 276.29 37.62 276.29C40.8026 276.29 43.8548 275.026 46.1053 272.775C48.3557 270.525 49.62 267.473 49.62 264.29C49.62 262.714 49.3096 261.154 48.7066 259.698C48.1035 258.242 47.2196 256.919 46.1053 255.805C44.991 254.69 43.6681 253.807 42.2122 253.203C40.7563 252.6 39.1959 252.29 37.62 252.29C36.0441 252.29 34.4837 252.6 33.0278 253.203C31.5719 253.807 30.249 254.69 29.1347 255.805C28.0204 256.919 27.1365 258.242 26.5334 259.698C25.9304 261.154 25.62 262.714 25.62 264.29V264.29ZM129.55 324.29C129.55 327.473 130.814 330.525 133.065 332.775C135.315 335.026 138.367 336.29 141.55 336.29C144.733 336.29 147.785 335.026 150.035 332.775C152.286 330.525 153.55 327.473 153.55 324.29C153.55 321.107 152.286 318.055 150.035 315.805C147.785 313.554 144.733 312.29 141.55 312.29C138.367 312.29 135.315 313.554 133.065 315.805C130.814 318.055 129.55 321.107 129.55 324.29V324.29ZM129.55 444.29C129.55 447.473 130.814 450.525 133.065 452.775C135.315 455.026 138.367 456.29 141.55 456.29C144.733 456.29 147.785 455.026 150.035 452.775C152.286 450.525 153.55 447.473 153.55 444.29C153.55 441.107 152.286 438.055 150.035 435.805C147.785 433.554 144.733 432.29 141.55 432.29C138.367 432.29 135.315 433.554 133.065 435.805C130.814 438.055 129.55 441.107 129.55 444.29V444.29ZM25.62 504.29C25.62 507.473 26.8843 510.525 29.1347 512.775C31.3852 515.026 34.4374 516.29 37.62 516.29C40.8026 516.29 43.8548 515.026 46.1053 512.775C48.3557 510.525 49.62 507.473 49.62 504.29C49.62 502.714 49.3096 501.154 48.7066 499.698C48.1035 498.242 47.2196 496.919 46.1053 495.805C44.991 494.69 43.6681 493.807 42.2122 493.203C40.7563 492.6 39.1959 492.29 37.62 492.29C36.0441 492.29 34.4837 492.6 33.0278 493.203C31.5719 493.807 30.249 494.69 29.1347 495.805C28.0204 496.919 27.1365 498.242 26.5334 499.698C25.9304 501.154 25.62 502.714 25.62 504.29V504.29ZM-78.31 444.29C-78.31 447.473 -77.0457 450.525 -74.7953 452.775C-72.5448 455.026 -69.4926 456.29 -66.31 456.29C-63.1274 456.29 -60.0752 455.026 -57.8247 452.775C-55.5743 450.525 -54.31 447.473 -54.31 444.29C-54.31 441.107 -55.5743 438.055 -57.8247 435.805C-60.0752 433.554 -63.1274 432.29 -66.31 432.29C-69.4926 432.29 -72.5448 433.554 -74.7953 435.805C-77.0457 438.055 -78.31 441.107 -78.31 444.29V444.29ZM-78.31 324.29C-78.31 327.473 -77.0457 330.525 -74.7953 332.775C-72.5448 335.026 -69.4926 336.29 -66.31 336.29C-63.1274 336.29 -60.0752 335.026 -57.8247 332.775C-55.5743 330.525 -54.31 327.473 -54.31 324.29C-54.31 321.107 -55.5743 318.055 -57.8247 315.805C-60.0752 313.554 -63.1274 312.29 -66.31 312.29C-69.4926 312.29 -72.5448 313.554 -74.7953 315.805C-77.0457 318.055 -78.31 321.107 -78.31 324.29V324.29ZM233.47 -95.71C233.47 -92.5274 234.734 -89.4751 236.985 -87.2247C239.235 -84.9743 242.287 -83.71 245.47 -83.71C248.653 -83.71 251.705 -84.9743 253.955 -87.2247C256.206 -89.4751 257.47 -92.5274 257.47 -95.71C257.47 -98.8926 256.206 -101.945 253.955 -104.195C251.705 -106.446 248.653 -107.71 245.47 -107.71C242.287 -107.71 239.235 -106.446 236.985 -104.195C234.734 -101.945 233.47 -98.8926 233.47 -95.71V-95.71ZM337.4 -35.71C337.4 -32.5274 338.664 -29.4751 340.915 -27.2247C343.165 -24.9743 346.217 -23.71 349.4 -23.71C352.583 -23.71 355.635 -24.9743 357.885 -27.2247C360.136 -29.4751 361.4 -32.5274 361.4 -35.71C361.4 -38.8926 360.136 -41.9448 357.885 -44.1953C355.635 -46.4457 352.583 -47.71 349.4 -47.71C346.217 -47.71 343.165 -46.4457 340.915 -44.1953C338.664 -41.9448 337.4 -38.8926 337.4 -35.71V-35.71ZM337.4 84.29C337.4 87.4726 338.664 90.5249 340.915 92.7753C343.165 95.0257 346.217 96.29 349.4 96.29C352.583 96.29 355.635 95.0257 357.885 92.7753C360.136 90.5249 361.4 87.4726 361.4 84.29C361.4 81.1074 360.136 78.0552 357.885 75.8047C355.635 73.5543 352.583 72.29 349.4 72.29C346.217 72.29 343.165 73.5543 340.915 75.8047C338.664 78.0552 337.4 81.1074 337.4 84.29V84.29ZM233.47 144.29C233.47 147.473 234.734 150.525 236.985 152.775C239.235 155.026 242.287 156.29 245.47 156.29C248.653 156.29 251.705 155.026 253.955 152.775C256.206 150.525 257.47 147.473 257.47 144.29C257.47 141.107 256.206 138.055 253.955 135.805C251.705 133.554 248.653 132.29 245.47 132.29C242.287 132.29 239.235 133.554 236.985 135.805C234.734 138.055 233.47 141.107 233.47 144.29V144.29ZM129.55 84.29C129.55 87.4726 130.814 90.5249 133.065 92.7753C135.315 95.0257 138.367 96.29 141.55 96.29C144.733 96.29 147.785 95.0257 150.035 92.7753C152.286 90.5249 153.55 87.4726 153.55 84.29C153.55 81.1074 152.286 78.0552 150.035 75.8047C147.785 73.5543 144.733 72.29 141.55 72.29C138.367 72.29 135.315 73.5543 133.065 75.8047C130.814 78.0552 129.55 81.1074 129.55 84.29V84.29ZM129.55 -35.71C129.55 -32.5274 130.814 -29.4751 133.065 -27.2247C135.315 -24.9743 138.367 -23.71 141.55 -23.71C144.733 -23.71 147.785 -24.9743 150.035 -27.2247C152.286 -29.4751 153.55 -32.5274 153.55 -35.71C153.55 -38.8926 152.286 -41.9448 150.035 -44.1953C147.785 -46.4457 144.733 -47.71 141.55 -47.71C138.367 -47.71 135.315 -46.4457 133.065 -44.1953C130.814 -41.9448 129.55 -38.8926 129.55 -35.71V-35.71ZM441.32 -95.71C441.32 -92.5274 442.584 -89.4751 444.835 -87.2247C447.085 -84.9743 450.137 -83.71 453.32 -83.71C456.503 -83.71 459.555 -84.9743 461.805 -87.2247C464.056 -89.4751 465.32 -92.5274 465.32 -95.71C465.32 -98.8926 464.056 -101.945 461.805 -104.195C459.555 -106.446 456.503 -107.71 453.32 -107.71C450.137 -107.71 447.085 -106.446 444.835 -104.195C442.584 -101.945 441.32 -98.8926 441.32 -95.71V-95.71ZM545.25 -35.71C545.25 -32.5274 546.514 -29.4751 548.765 -27.2247C551.015 -24.9743 554.067 -23.71 557.25 -23.71C560.433 -23.71 563.485 -24.9743 565.735 -27.2247C567.986 -29.4751 569.25 -32.5274 569.25 -35.71C569.25 -38.8926 567.986 -41.9448 565.735 -44.1953C563.485 -46.4457 560.433 -47.71 557.25 -47.71C554.067 -47.71 551.015 -46.4457 548.765 -44.1953C546.514 -41.9448 545.25 -38.8926 545.25 -35.71V-35.71ZM545.25 84.29C545.25 87.4726 546.514 90.5249 548.765 92.7753C551.015 95.0257 554.067 96.29 557.25 96.29C560.433 96.29 563.485 95.0257 565.735 92.7753C567.986 90.5249 569.25 87.4726 569.25 84.29C569.25 81.1074 567.986 78.0552 565.735 75.8047C563.485 73.5543 560.433 72.29 557.25 72.29C554.067 72.29 551.015 73.5543 548.765 75.8047C546.514 78.0552 545.25 81.1074 545.25 84.29V84.29ZM441.32 144.29C441.32 147.473 442.584 150.525 444.835 152.775C447.085 155.026 450.137 156.29 453.32 156.29C456.503 156.29 459.555 155.026 461.805 152.775C464.056 150.525 465.32 147.473 465.32 144.29C465.32 141.107 464.056 138.055 461.805 135.805C459.555 133.554 456.503 132.29 453.32 132.29C450.137 132.29 447.085 133.554 444.835 135.805C442.584 138.055 441.32 141.107 441.32 144.29V144.29ZM441.32 264.29C441.32 267.473 442.584 270.525 444.835 272.775C447.085 275.026 450.137 276.29 453.32 276.29C456.503 276.29 459.555 275.026 461.805 272.775C464.056 270.525 465.32 267.473 465.32 264.29C465.32 261.107 464.056 258.055 461.805 255.805C459.555 253.554 456.503 252.29 453.32 252.29C450.137 252.29 447.085 253.554 444.835 255.805C442.584 258.055 441.32 261.107 441.32 264.29V264.29ZM545.25 324.29C545.25 327.473 546.514 330.525 548.765 332.775C551.015 335.026 554.067 336.29 557.25 336.29C560.433 336.29 563.485 335.026 565.735 332.775C567.986 330.525 569.25 327.473 569.25 324.29C569.25 321.107 567.986 318.055 565.735 315.805C563.485 313.554 560.433 312.29 557.25 312.29C554.067 312.29 551.015 313.554 548.765 315.805C546.514 318.055 545.25 321.107 545.25 324.29V324.29ZM545.25 444.29C545.25 447.473 546.514 450.525 548.765 452.775C551.015 455.026 554.067 456.29 557.25 456.29C560.433 456.29 563.485 455.026 565.735 452.775C567.986 450.525 569.25 447.473 569.25 444.29C569.25 441.107 567.986 438.055 565.735 435.805C563.485 433.554 560.433 432.29 557.25 432.29C554.067 432.29 551.015 433.554 548.765 435.805C546.514 438.055 545.25 441.107 545.25 444.29V444.29ZM441.32 504.29C441.32 507.473 442.584 510.525 444.835 512.775C447.085 515.026 450.137 516.29 453.32 516.29C456.503 516.29 459.555 515.026 461.805 512.775C464.056 510.525 465.32 507.473 465.32 504.29C465.32 501.107 464.056 498.055 461.805 495.805C459.555 493.554 456.503 492.29 453.32 492.29C450.137 492.29 447.085 493.554 444.835 495.805C442.584 498.055 441.32 501.107 441.32 504.29V504.29ZM337.4 444.29C337.4 447.473 338.664 450.525 340.915 452.775C343.165 455.026 346.217 456.29 349.4 456.29C352.583 456.29 355.635 455.026 357.885 452.775C360.136 450.525 361.4 447.473 361.4 444.29C361.4 441.107 360.136 438.055 357.885 435.805C355.635 433.554 352.583 432.29 349.4 432.29C346.217 432.29 343.165 433.554 340.915 435.805C338.664 438.055 337.4 441.107 337.4 444.29V444.29ZM337.4 324.29C337.4 327.473 338.664 330.525 340.915 332.775C343.165 335.026 346.217 336.29 349.4 336.29C352.583 336.29 355.635 335.026 357.885 332.775C360.136 330.525 361.4 327.473 361.4 324.29C361.4 321.107 360.136 318.055 357.885 315.805C355.635 313.554 352.583 312.29 349.4 312.29C346.217 312.29 343.165 313.554 340.915 315.805C338.664 318.055 337.4 321.107 337.4 324.29V324.29ZM649.18 264.29C649.18 267.473 650.444 270.525 652.695 272.775C654.945 275.026 657.997 276.29 661.18 276.29C664.363 276.29 667.415 275.026 669.665 272.775C671.916 270.525 673.18 267.473 673.18 264.29C673.18 261.107 671.916 258.055 669.665 255.805C667.415 253.554 664.363 252.29 661.18 252.29C657.997 252.29 654.945 253.554 652.695 255.805C650.444 258.055 649.18 261.107 649.18 264.29V264.29ZM753.1 324.29C753.1 325.866 753.41 327.426 754.013 328.882C754.616 330.338 755.5 331.661 756.615 332.775C757.729 333.89 759.052 334.773 760.508 335.377C761.964 335.98 763.524 336.29 765.1 336.29C766.676 336.29 768.236 335.98 769.692 335.377C771.148 334.773 772.471 333.89 773.585 332.775C774.7 331.661 775.584 330.338 776.187 328.882C776.79 327.426 777.1 325.866 777.1 324.29C777.1 322.714 776.79 321.154 776.187 319.698C775.584 318.242 774.7 316.919 773.585 315.805C772.471 314.69 771.148 313.806 769.692 313.203C768.236 312.6 766.676 312.29 765.1 312.29C763.524 312.29 761.964 312.6 760.508 313.203C759.052 313.806 757.729 314.69 756.615 315.805C755.5 316.919 754.616 318.242 754.013 319.698C753.41 321.154 753.1 322.714 753.1 324.29ZM753.1 444.29C753.1 445.866 753.41 447.426 754.013 448.882C754.616 450.338 755.5 451.661 756.615 452.775C757.729 453.89 759.052 454.773 760.508 455.377C761.964 455.98 763.524 456.29 765.1 456.29C766.676 456.29 768.236 455.98 769.692 455.377C771.148 454.773 772.471 453.89 773.585 452.775C774.7 451.661 775.584 450.338 776.187 448.882C776.79 447.426 777.1 445.866 777.1 444.29C777.1 442.714 776.79 441.154 776.187 439.698C775.584 438.242 774.7 436.919 773.585 435.805C772.471 434.69 771.148 433.807 769.692 433.203C768.236 432.6 766.676 432.29 765.1 432.29C763.524 432.29 761.964 432.6 760.508 433.203C759.052 433.807 757.729 434.69 756.615 435.805C755.5 436.919 754.616 438.242 754.013 439.698C753.41 441.154 753.1 442.714 753.1 444.29ZM649.18 504.29C649.18 507.473 650.444 510.525 652.695 512.775C654.945 515.026 657.997 516.29 661.18 516.29C664.363 516.29 667.415 515.026 669.665 512.775C671.916 510.525 673.18 507.473 673.18 504.29C673.18 501.107 671.916 498.055 669.665 495.805C667.415 493.554 664.363 492.29 661.18 492.29C657.997 492.29 654.945 493.554 652.695 495.805C650.444 498.055 649.18 501.107 649.18 504.29V504.29ZM649.18 624.29C649.18 627.473 650.444 630.525 652.695 632.775C654.945 635.026 657.997 636.29 661.18 636.29C664.363 636.29 667.415 635.026 669.665 632.775C671.916 630.525 673.18 627.473 673.18 624.29C673.18 621.107 671.916 618.055 669.665 615.805C667.415 613.554 664.363 612.29 661.18 612.29C657.997 612.29 654.945 613.554 652.695 615.805C650.444 618.055 649.18 621.107 649.18 624.29ZM753.1 684.29C753.1 685.866 753.41 687.426 754.013 688.882C754.616 690.338 755.5 691.661 756.615 692.775C757.729 693.89 759.052 694.773 760.508 695.377C761.964 695.98 763.524 696.29 765.1 696.29C766.676 696.29 768.236 695.98 769.692 695.377C771.148 694.773 772.471 693.89 773.585 692.775C774.7 691.661 775.584 690.338 776.187 688.882C776.79 687.426 777.1 685.866 777.1 684.29C777.1 682.714 776.79 681.154 776.187 679.698C775.584 678.242 774.7 676.919 773.585 675.805C772.471 674.69 771.148 673.807 769.692 673.203C768.236 672.6 766.676 672.29 765.1 672.29C763.524 672.29 761.964 672.6 760.508 673.203C759.052 673.807 757.729 674.69 756.615 675.805C755.5 676.919 754.616 678.242 754.013 679.698C753.41 681.154 753.1 682.714 753.1 684.29V684.29ZM753.1 804.29C753.1 805.866 753.41 807.426 754.013 808.882C754.616 810.338 755.5 811.661 756.615 812.775C757.729 813.89 759.052 814.773 760.508 815.377C761.964 815.98 763.524 816.29 765.1 816.29C766.676 816.29 768.236 815.98 769.692 815.377C771.148 814.773 772.471 813.89 773.585 812.775C774.7 811.661 775.584 810.338 776.187 808.882C776.79 807.426 777.1 805.866 777.1 804.29C777.1 802.714 776.79 801.154 776.187 799.698C775.584 798.242 774.7 796.919 773.585 795.805C772.471 794.69 771.148 793.807 769.692 793.203C768.236 792.6 766.676 792.29 765.1 792.29C763.524 792.29 761.964 792.6 760.508 793.203C759.052 793.807 757.729 794.69 756.615 795.805C755.5 796.919 754.616 798.242 754.013 799.698C753.41 801.154 753.1 802.714 753.1 804.29V804.29ZM649.18 864.29C649.18 867.473 650.444 870.525 652.695 872.775C654.945 875.026 657.997 876.29 661.18 876.29C664.363 876.29 667.415 875.026 669.665 872.775C671.916 870.525 673.18 867.473 673.18 864.29C673.18 861.107 671.916 858.055 669.665 855.805C667.415 853.554 664.363 852.29 661.18 852.29C657.997 852.29 654.945 853.554 652.695 855.805C650.444 858.055 649.18 861.107 649.18 864.29ZM545.25 804.29C545.25 807.473 546.514 810.525 548.765 812.775C551.015 815.026 554.067 816.29 557.25 816.29C560.433 816.29 563.485 815.026 565.735 812.775C567.986 810.525 569.25 807.473 569.25 804.29C569.25 801.107 567.986 798.055 565.735 795.805C563.485 793.554 560.433 792.29 557.25 792.29C554.067 792.29 551.015 793.554 548.765 795.805C546.514 798.055 545.25 801.107 545.25 804.29ZM545.25 684.29C545.25 687.473 546.514 690.525 548.765 692.775C551.015 695.026 554.067 696.29 557.25 696.29C560.433 696.29 563.485 695.026 565.735 692.775C567.986 690.525 569.25 687.473 569.25 684.29C569.25 681.107 567.986 678.055 565.735 675.805C563.485 673.554 560.433 672.29 557.25 672.29C554.067 672.29 551.015 673.554 548.765 675.805C546.514 678.055 545.25 681.107 545.25 684.29Z" fill="#1F50EF"/>
<path d="M80.23 -35.88L160.77 10.62V103.62L80.23 150.12L-0.309998 103.62V10.62L80.23 -35.88ZM160.77 103.62L241.32 150.12V243.12L160.77 289.62L80.23 243.12V150.12L160.77 103.62ZM160.77 382.62L241.32 429.12V522.12L160.77 568.62L80.23 522.12V429.12L160.77 382.62ZM402.4 522.12L482.94 568.62V661.62L402.4 708.12L321.86 661.62V568.62L402.4 522.12ZM644.03 661.62L724.57 708.12V801.12L644.03 847.62L563.49 801.12V708.12L644.03 661.62ZM644.03 940.62L724.57 987.12V1080.12L644.03 1126.62L563.49 1080.12V987.12L644.03 940.62ZM724.57 522.12L805.11 568.62V661.62L724.57 708.12L644.03 661.62V568.62L724.57 522.12ZM805.11 661.62L885.66 708.12V801.12L805.11 847.62L724.57 801.12V708.12L805.11 661.62ZM724.57 801.12L805.11 847.62V940.62L724.57 987.12L644.03 940.62V847.62L724.57 801.12ZM805.11 940.62L885.66 987.12V1080.12L805.11 1126.62L724.57 1080.12V987.12L805.11 940.62Z" stroke="#E8EBF7" stroke-width="2"/>
</g>
<defs>
<clipPath id="clip0_1014_4779">
<rect width="727" height="1024" fill="white"/>
</clipPath>
</defs>
</svg>
