<svg width="20" height="20" viewBox="0 0 20 20" fill="none" xmlns="http://www.w3.org/2000/svg">
<path d="M17.7778 4.44446H2.22223C1.92754 4.44446 1.64493 4.56152 1.43655 4.7699C1.22818 4.97827 1.11111 5.26088 1.11111 5.55557V14.4445C1.11111 14.7391 1.22818 15.0218 1.43655 15.2301C1.64493 15.4385 1.92754 15.5556 2.22223 15.5556H17.7778C18.0725 15.5556 18.3551 15.4385 18.5635 15.2301C18.7718 15.0218 18.8889 14.7391 18.8889 14.4445V5.55557C18.8889 5.26088 18.7718 4.97827 18.5635 4.7699C18.3551 4.56152 18.0725 4.44446 17.7778 4.44446V4.44446ZM17.7778 14.4445H2.22223V5.55557H17.7778V14.4445Z" fill="white"/>
<path d="M3.88889 7.22217H5V8.33328H3.88889V7.22217Z" fill="white"/>
<path d="M6.11111 7.22217H7.22223V8.33328H6.11111V7.22217Z" fill="white"/>
<path d="M8.33334 7.22217H9.44446V8.33328H8.33334V7.22217Z" fill="white"/>
<path d="M10.5555 7.22217H11.6667V8.33328H10.5555V7.22217Z" fill="white"/>
<path d="M12.7778 7.22217H13.8889V8.33328H12.7778V7.22217Z" fill="white"/>
<path d="M15 7.22217H16.1111V8.33328H15V7.22217Z" fill="white"/>
<path d="M3.88889 9.44446H5V10.5556H3.88889V9.44446Z" fill="white"/>
<path d="M6.11111 9.44446H7.22223V10.5556H6.11111V9.44446Z" fill="white"/>
<path d="M8.33334 9.44446H9.44446V10.5556H8.33334V9.44446Z" fill="white"/>
<path d="M10.5555 9.44446H11.6667V10.5556H10.5555V9.44446Z" fill="white"/>
<path d="M12.7778 9.44446H13.8889V10.5556H12.7778V9.44446Z" fill="white"/>
<path d="M15 9.44446H16.1111V10.5556H15V9.44446Z" fill="white"/>
<path d="M15 12.2222H16.0778V13.3333H15V12.2222Z" fill="white"/>
<path d="M3.88889 12.2222H5V13.3333H3.88889V12.2222Z" fill="white"/>
<path d="M6.18332 12.2222H13.8222V13.3333H6.18332V12.2222Z" fill="white"/>
</svg>
