<svg width="20" height="20" viewBox="0 0 20 20" fill="none" xmlns="http://www.w3.org/2000/svg">
<g clip-path="url(#clip0_1076_4530)">
<path d="M19.2143 7.18124C18.7123 5.99309 17.9846 4.91362 17.0714 4.00267C16.1605 3.08952 15.081 2.36178 13.8929 1.85981C12.6585 1.33749 11.3504 1.0741 10 1.0741C8.64955 1.0741 7.34152 1.33749 6.10714 1.85981C4.91899 2.36178 3.83952 3.08952 2.92857 4.00267C2.01542 4.91362 1.28769 5.99309 0.785714 7.18124C0.263393 8.41562 0 9.72365 0 11.0741C0 14.0362 1.30134 16.8263 3.5692 18.7326L3.60714 18.7638C3.73661 18.871 3.89955 18.9312 4.06696 18.9312H15.9353C16.1027 18.9312 16.2656 18.871 16.3951 18.7638L16.433 18.7326C18.6987 16.8263 20 14.0362 20 11.0741C20 9.72365 19.7344 8.41562 19.2143 7.18124ZM15.567 17.2348H4.43304C3.57053 16.4571 2.88118 15.5068 2.40972 14.4454C1.93827 13.3841 1.69525 12.2354 1.69643 11.0741C1.69643 8.85535 2.56027 6.77053 4.12946 5.20356C5.69866 3.63436 7.78348 2.77053 10 2.77053C12.2188 2.77053 14.3036 3.63436 15.8705 5.20356C17.4397 6.77276 18.3036 8.85758 18.3036 11.0741C18.3036 13.4312 17.3103 15.6612 15.567 17.2348ZM12.4888 7.98258C12.4553 7.94935 12.41 7.9307 12.3627 7.9307C12.3155 7.9307 12.2702 7.94935 12.2366 7.98258L10.3504 9.86874C9.93304 9.75713 9.47098 9.86428 9.14286 10.1924C9.02664 10.3084 8.93443 10.4462 8.87152 10.5979C8.80861 10.7495 8.77623 10.9121 8.77623 11.0763C8.77623 11.2405 8.80861 11.4031 8.87152 11.5548C8.93443 11.7065 9.02664 11.8443 9.14286 11.9603C9.25886 12.0765 9.39664 12.1687 9.54831 12.2316C9.69999 12.2945 9.86258 12.3269 10.0268 12.3269C10.191 12.3269 10.3536 12.2945 10.5053 12.2316C10.6569 12.1687 10.7947 12.0765 10.9107 11.9603C11.0662 11.8053 11.178 11.612 11.2348 11.4C11.2916 11.1879 11.2915 10.9646 11.2344 10.7527L13.1205 8.86651C13.1897 8.79731 13.1897 8.68347 13.1205 8.61428L12.4888 7.98258V7.98258ZM9.50893 5.71695H10.4911C10.5893 5.71695 10.6696 5.6366 10.6696 5.53838V3.75267C10.6696 3.65445 10.5893 3.5741 10.4911 3.5741H9.50893C9.41071 3.5741 9.33036 3.65445 9.33036 3.75267V5.53838C9.33036 5.6366 9.41071 5.71695 9.50893 5.71695ZM15.3125 10.583V11.5652C15.3125 11.6634 15.3929 11.7437 15.4911 11.7437H17.2768C17.375 11.7437 17.4554 11.6634 17.4554 11.5652V10.583C17.4554 10.4848 17.375 10.4045 17.2768 10.4045H15.4911C15.3929 10.4045 15.3125 10.4848 15.3125 10.583ZM15.596 6.18124L14.9018 5.48704C14.8682 5.45381 14.8229 5.43517 14.7757 5.43517C14.7284 5.43517 14.6831 5.45381 14.6496 5.48704L13.3862 6.75044C13.3529 6.784 13.3343 6.82932 13.3343 6.87655C13.3343 6.92378 13.3529 6.96911 13.3862 7.00267L14.0804 7.69687C14.1496 7.76606 14.2634 7.76606 14.3326 7.69687L15.596 6.43347C15.6652 6.36428 15.6652 6.25044 15.596 6.18124ZM5.35938 5.48704C5.32581 5.45381 5.28049 5.43517 5.23326 5.43517C5.18603 5.43517 5.1407 5.45381 5.10714 5.48704L4.41295 6.18124C4.37971 6.2148 4.36107 6.26012 4.36107 6.30736C4.36107 6.35459 4.37971 6.39991 4.41295 6.43347L5.67634 7.69687C5.74554 7.76606 5.85938 7.76606 5.92857 7.69687L6.62277 7.00267C6.69196 6.93347 6.69196 6.81963 6.62277 6.75044L5.35938 5.48704ZM4.41964 10.4045H2.63393C2.53571 10.4045 2.45536 10.4848 2.45536 10.583V11.5652C2.45536 11.6634 2.53571 11.7437 2.63393 11.7437H4.41964C4.51786 11.7437 4.59821 11.6634 4.59821 11.5652V10.583C4.59821 10.4848 4.51786 10.4045 4.41964 10.4045Z" fill="white"/>
</g>
<defs>
<clipPath id="clip0_1076_4530">
<rect width="20" height="20" fill="white"/>
</clipPath>
</defs>
</svg>
