<svg width="20" height="20" viewBox="0 0 20 20" fill="none" xmlns="http://www.w3.org/2000/svg">
<path d="M18.5115 5.12097L14.882 1.49151C14.7146 1.3241 14.5093 1.20133 14.2861 1.13436V1.0741H1.78606C1.39097 1.0741 1.07178 1.39329 1.07178 1.78838V18.217C1.07178 18.612 1.39097 18.9312 1.78606 18.9312H18.2146C18.6097 18.9312 18.9289 18.612 18.9289 18.217V6.1299C18.9289 5.75044 18.7794 5.38883 18.5115 5.12097ZM7.14321 2.68124H12.8575V5.00267H7.14321V2.68124ZM17.3218 17.3241H2.67892V2.68124H5.71463V5.71695C5.71463 6.11204 6.03383 6.43124 6.42892 6.43124H13.5718C13.9669 6.43124 14.2861 6.11204 14.2861 5.71695V3.16785L17.3218 6.20356V17.3241ZM10.0003 8.44017C8.2258 8.44017 6.78606 9.8799 6.78606 11.6545C6.78606 13.429 8.2258 14.8687 10.0003 14.8687C11.7749 14.8687 13.2146 13.429 13.2146 11.6545C13.2146 9.8799 11.7749 8.44017 10.0003 8.44017ZM10.0003 13.4402C9.01374 13.4402 8.21464 12.6411 8.21464 11.6545C8.21464 10.6678 9.01374 9.86874 10.0003 9.86874C10.987 9.86874 11.7861 10.6678 11.7861 11.6545C11.7861 12.6411 10.987 13.4402 10.0003 13.4402Z" fill="white"/>
</svg>
