<svg width="20" height="20" viewBox="0 0 20 20" fill="none" xmlns="http://www.w3.org/2000/svg">
<path d="M17.7338 15.6134C17.3127 14.616 16.7016 13.7101 15.9347 12.946C15.17 12.1797 14.2642 11.5688 13.2672 11.1469C13.2583 11.1424 13.2494 11.1402 13.2405 11.1357C14.6311 10.1313 15.5351 8.4951 15.5351 6.64912C15.5351 3.59108 13.0574 1.1134 9.99939 1.1134C6.94135 1.1134 4.46367 3.59108 4.46367 6.64912C4.46367 8.4951 5.36769 10.1313 6.75832 11.138C6.74939 11.1424 6.74046 11.1447 6.73153 11.1491C5.73153 11.571 4.83421 12.1759 4.06412 12.9482C3.29785 13.7129 2.6869 14.6187 2.26501 15.6156C1.85055 16.5916 1.62703 17.6381 1.60653 18.6982C1.60594 18.7221 1.61011 18.7458 1.61882 18.7679C1.62753 18.7901 1.64059 18.8103 1.65723 18.8274C1.67387 18.8445 1.69376 18.858 1.71572 18.8673C1.73768 18.8765 1.76127 18.8813 1.7851 18.8813H3.12439C3.2226 18.8813 3.30073 18.8031 3.30296 18.7072C3.3476 16.9839 4.03957 15.3701 5.26278 14.1469C6.52841 12.8813 8.20921 12.1848 9.99939 12.1848C11.7896 12.1848 13.4704 12.8813 14.736 14.1469C15.9592 15.3701 16.6512 16.9839 16.6958 18.7072C16.6981 18.8054 16.7762 18.8813 16.8744 18.8813H18.2137C18.2375 18.8813 18.2611 18.8765 18.2831 18.8673C18.305 18.858 18.3249 18.8445 18.3416 18.8274C18.3582 18.8103 18.3713 18.7901 18.38 18.7679C18.3887 18.7458 18.3928 18.7221 18.3922 18.6982C18.3699 17.6313 18.1489 16.5933 17.7338 15.6134V15.6134ZM9.99939 10.4884C8.97484 10.4884 8.01055 10.0889 7.2851 9.36341C6.55966 8.63796 6.1601 7.67367 6.1601 6.64912C6.1601 5.62456 6.55966 4.66028 7.2851 3.93483C8.01055 3.20939 8.97484 2.80983 9.99939 2.80983C11.0239 2.80983 11.9882 3.20939 12.7137 3.93483C13.4391 4.66028 13.8387 5.62456 13.8387 6.64912C13.8387 7.67367 13.4391 8.63796 12.7137 9.36341C11.9882 10.0889 11.0239 10.4884 9.99939 10.4884Z" fill="white"/>
</svg>
