<svg width="20" height="20" viewBox="0 0 20 20" fill="none" xmlns="http://www.w3.org/2000/svg">
<path d="M18.2146 2.68136H14.4646V1.25279C14.4646 1.15458 14.3843 1.07422 14.2861 1.07422H13.0361C12.9379 1.07422 12.8575 1.15458 12.8575 1.25279V2.68136H7.14321V1.25279C7.14321 1.15458 7.06285 1.07422 6.96464 1.07422H5.71463C5.61642 1.07422 5.53606 1.15458 5.53606 1.25279V2.68136H1.78606C1.39097 2.68136 1.07178 3.00056 1.07178 3.39565V18.2171C1.07178 18.6122 1.39097 18.9314 1.78606 18.9314H18.2146C18.6097 18.9314 18.9289 18.6122 18.9289 18.2171V3.39565C18.9289 3.00056 18.6097 2.68136 18.2146 2.68136ZM17.3218 17.3242H2.67892V4.2885H5.53606V5.35993C5.53606 5.45815 5.61642 5.5385 5.71463 5.5385H6.96464C7.06285 5.5385 7.14321 5.45815 7.14321 5.35993V4.2885H12.8575V5.35993C12.8575 5.45815 12.9379 5.5385 13.0361 5.5385H14.2861C14.3843 5.5385 14.4646 5.45815 14.4646 5.35993V4.2885H17.3218V17.3242ZM13.9289 7.94922H12.6968C12.5829 7.94922 12.4736 8.00502 12.4066 8.09654L9.0383 12.7349L7.5941 10.7483C7.52714 10.6568 7.41999 10.601 7.30392 10.601H6.07178C5.92669 10.601 5.84187 10.7662 5.92669 10.8845L8.74812 14.7684C8.78148 14.8141 8.82515 14.8512 8.87557 14.8768C8.92599 14.9024 8.98174 14.9158 9.0383 14.9158C9.09485 14.9158 9.1506 14.9024 9.20102 14.8768C9.25145 14.8512 9.29511 14.8141 9.32847 14.7684L14.074 8.23493C14.1588 8.1144 14.074 7.94922 13.9289 7.94922Z" fill="#1438AE"/>
</svg>
