<svg width="40" height="40" viewBox="0 0 40 40" fill="none" xmlns="http://www.w3.org/2000/svg">
<g clip-path="url(#clip0_1102_4763)">
<path d="M34.2847 0H5.71324C4.92306 0 4.28467 0.638393 4.28467 1.42857V38.5714C4.28467 39.3616 4.92306 40 5.71324 40H34.2847C35.0748 40 35.7132 39.3616 35.7132 38.5714V1.42857C35.7132 0.638393 35.0748 0 34.2847 0ZM7.49895 3.21429H32.499V12.5H7.49895V3.21429ZM32.499 24.6429H7.49895V15.3571H32.499V24.6429ZM32.499 36.7857H7.49895V27.5H32.499V36.7857ZM19.2847 6.42857H11.0704C10.874 6.42857 10.7132 6.58929 10.7132 6.78571V8.92857C10.7132 9.125 10.874 9.28571 11.0704 9.28571H19.2847C19.4811 9.28571 19.6418 9.125 19.6418 8.92857V6.78571C19.6418 6.58929 19.4811 6.42857 19.2847 6.42857ZM11.0704 21.4286H19.2847C19.4811 21.4286 19.6418 21.2679 19.6418 21.0714V18.9286C19.6418 18.7321 19.4811 18.5714 19.2847 18.5714H11.0704C10.874 18.5714 10.7132 18.7321 10.7132 18.9286V21.0714C10.7132 21.2679 10.874 21.4286 11.0704 21.4286ZM25.7132 32.3214C25.7132 32.795 25.9014 33.2492 26.2363 33.5841C26.5712 33.919 27.0254 34.1071 27.499 34.1071C27.9726 34.1071 28.4268 33.919 28.7616 33.5841C29.0965 33.2492 29.2847 32.795 29.2847 32.3214C29.2847 31.8478 29.0965 31.3936 28.7616 31.0587C28.4268 30.7239 27.9726 30.5357 27.499 30.5357C27.0254 30.5357 26.5712 30.7239 26.2363 31.0587C25.9014 31.3936 25.7132 31.8478 25.7132 32.3214V32.3214Z" fill="url(#paint0_linear_1102_4763)"/>
</g>
<defs>
<linearGradient id="paint0_linear_1102_4763" x1="20.0008" y1="5.93779" x2="20.0008" y2="50.7378" gradientUnits="userSpaceOnUse">
<stop stop-color="#E9E8EA"/>
<stop offset="1" stop-color="#E9E8EA" stop-opacity="0"/>
</linearGradient>
<clipPath id="clip0_1102_4763">
<rect width="40" height="40" fill="white"/>
</clipPath>
</defs>
</svg>
