<svg width="20" height="20" viewBox="0 0 20 20" fill="none" xmlns="http://www.w3.org/2000/svg">
<path d="M6.6068 2.67648H6.42822C6.52644 2.67648 6.6068 2.59612 6.6068 2.49791V2.67648H13.3925V2.49791C13.3925 2.59612 13.4729 2.67648 13.5711 2.67648H13.3925V4.28362H14.9997V2.49791C14.9997 1.70996 14.359 1.06934 13.5711 1.06934H6.42822C5.64028 1.06934 4.99965 1.70996 4.99965 2.49791V4.28362H6.6068V2.67648ZM17.8568 4.28362H2.14251C1.74742 4.28362 1.42822 4.60282 1.42822 4.99791V5.71219C1.42822 5.81041 1.50858 5.89076 1.60679 5.89076H2.95501L3.50635 17.5649C3.54206 18.326 4.17153 18.9265 4.93269 18.9265H15.0666C15.83 18.9265 16.4572 18.3283 16.493 17.5649L17.0443 5.89076H18.3925C18.4907 5.89076 18.5711 5.81041 18.5711 5.71219V4.99791C18.5711 4.60282 18.2519 4.28362 17.8568 4.28362ZM14.8947 17.3193H5.10456L4.56438 5.89076H15.4349L14.8947 17.3193Z" fill="white"/>
</svg>
