<svg width="20" height="20" viewBox="0 0 20 20" fill="none" xmlns="http://www.w3.org/2000/svg">
<path d="M18.7503 9.99791H17.5003C17.4021 9.99791 17.3218 10.0783 17.3218 10.1765V17.3193H2.67892V2.67648H9.82178C9.91999 2.67648 10.0003 2.59612 10.0003 2.49791V1.24791C10.0003 1.14969 9.91999 1.06934 9.82178 1.06934H1.78606C1.39097 1.06934 1.07178 1.38853 1.07178 1.78362V18.2122C1.07178 18.6073 1.39097 18.9265 1.78606 18.9265H18.2146C18.6097 18.9265 18.9289 18.6073 18.9289 18.2122V10.1765C18.9289 10.0783 18.8486 9.99791 18.7503 9.99791Z" fill="white"/>
<path d="M6.51583 10.5091L6.47342 13.1631C6.47118 13.3617 6.6319 13.5247 6.83056 13.5247H6.83949L9.47341 13.46C9.51806 13.4577 9.5627 13.4399 9.59395 13.4086L18.8774 4.14523C18.9466 4.07603 18.9466 3.96219 18.8774 3.893L16.1029 1.12068C16.0672 1.08496 16.0225 1.06934 15.9756 1.06934C15.9288 1.06934 15.8841 1.08719 15.8484 1.12068L6.56717 10.3841C6.53493 10.4178 6.51659 10.4624 6.51583 10.5091ZM7.93324 11.0359L15.9756 3.0113L16.9846 4.018L8.9377 12.047L7.91761 12.0716L7.93324 11.0359Z" fill="white"/>
</svg>
