<svg width="40" height="40" viewBox="0 0 40 40" fill="none" xmlns="http://www.w3.org/2000/svg">
<path d="M36.4292 5.36248H28.9292V2.50534C28.9292 2.30891 28.7685 2.14819 28.5721 2.14819H26.0721C25.8757 2.14819 25.715 2.30891 25.715 2.50534V5.36248H14.2864V2.50534C14.2864 2.30891 14.1257 2.14819 13.9292 2.14819H11.4292C11.2328 2.14819 11.0721 2.30891 11.0721 2.50534V5.36248H3.5721C2.78192 5.36248 2.14352 6.00087 2.14352 6.79105V36.4339C2.14352 37.2241 2.78192 37.8625 3.5721 37.8625H36.4292C37.2194 37.8625 37.8578 37.2241 37.8578 36.4339V6.79105C37.8578 6.00087 37.2194 5.36248 36.4292 5.36248ZM34.6435 34.6482H5.35781V8.57677H11.0721V10.7196C11.0721 10.9161 11.2328 11.0768 11.4292 11.0768H13.9292C14.1257 11.0768 14.2864 10.9161 14.2864 10.7196V8.57677H25.715V10.7196C25.715 10.9161 25.8757 11.0768 26.0721 11.0768H28.5721C28.7685 11.0768 28.9292 10.9161 28.9292 10.7196V8.57677H34.6435V34.6482ZM27.8578 15.8982H25.3935C25.1658 15.8982 24.9471 16.0098 24.8132 16.1928L18.0766 25.4696L15.1882 21.4964C15.0542 21.3134 14.84 21.2018 14.6078 21.2018H12.1435C11.8533 21.2018 11.6837 21.5321 11.8533 21.7687L17.4962 29.5366C17.5629 29.6279 17.6503 29.7022 17.7511 29.7534C17.852 29.8046 17.9635 29.8313 18.0766 29.8313C18.1897 29.8313 18.3012 29.8046 18.402 29.7534C18.5029 29.7022 18.5902 29.6279 18.6569 29.5366L28.148 16.4696C28.3176 16.2286 28.148 15.8982 27.8578 15.8982Z" fill="url(#paint0_linear_505_4615)"/>
<defs>
<linearGradient id="paint0_linear_505_4615" x1="20.0028" y1="7.44979" x2="20.0028" y2="47.4498" gradientUnits="userSpaceOnUse">
<stop stop-color="#E9E8EA"/>
<stop offset="1" stop-color="#E9E8EA" stop-opacity="0"/>
</linearGradient>
</defs>
</svg>
