<svg width="14" height="14" viewBox="0 0 14 14" fill="none" xmlns="http://www.w3.org/2000/svg">
<g clip-path="url(#clip0_742_4776)">
<path d="M13.1252 6.99854H12.2502C12.1815 6.99854 12.1252 7.05479 12.1252 7.12354V12.1235H1.87524V1.87354H6.87524C6.94399 1.87354 7.00024 1.81729 7.00024 1.74854V0.873535C7.00024 0.804785 6.94399 0.748535 6.87524 0.748535H1.25024C0.973682 0.748535 0.750244 0.971973 0.750244 1.24854V12.7485C0.750244 13.0251 0.973682 13.2485 1.25024 13.2485H12.7502C13.0268 13.2485 13.2502 13.0251 13.2502 12.7485V7.12354C13.2502 7.05479 13.194 6.99854 13.1252 6.99854Z" fill="#0A1C57"/>
<path d="M4.56108 7.35635L4.53139 9.21416C4.52983 9.35322 4.64233 9.46728 4.78139 9.46728H4.78764L6.63139 9.42197C6.66264 9.42041 6.69389 9.40791 6.71577 9.38603L13.2142 2.90166C13.2626 2.85322 13.2626 2.77354 13.2142 2.7251L11.272 0.784473C11.247 0.759473 11.2158 0.748535 11.183 0.748535C11.1501 0.748535 11.1189 0.761035 11.0939 0.784473L4.59702 7.26885C4.57445 7.29245 4.56161 7.3237 4.56108 7.35635ZM5.55327 7.7251L11.183 2.10791L11.8892 2.8126L6.25639 8.43291L5.54233 8.4501L5.55327 7.7251Z" fill="#0A1C57"/>
</g>
<defs>
<clipPath id="clip0_742_4776">
<rect width="14" height="14" fill="white"/>
</clipPath>
</defs>
</svg>
