<svg
                    width="40"
                    height="40"
                    viewBox="0 0 40 40"
                    fill="none"
                    xmlns="http://www.w3.org/2000/svg"
                  >
                    <g opacity="0.5">
                      <path
                        d="M37.023 10.2421L29.7641 2.98314C29.4292 2.64832 29.0185 2.40278 28.5721 2.26885V2.14832H3.5721C2.78192 2.14832 2.14352 2.78671 2.14352 3.57689V36.434C2.14352 37.2242 2.78192 37.8626 3.5721 37.8626H36.4292C37.2194 37.8626 37.8578 37.2242 37.8578 36.434V12.2599C37.8578 11.501 37.5587 10.7778 37.023 10.2421ZM14.2864 5.3626H25.715V10.0055H14.2864V5.3626ZM34.6435 34.6483H5.35781V5.3626H11.4292V11.434C11.4292 12.2242 12.0676 12.8626 12.8578 12.8626H27.1435C27.9337 12.8626 28.5721 12.2242 28.5721 11.434V6.33582L34.6435 12.4072V34.6483ZM20.0007 16.8805C16.4516 16.8805 13.5721 19.7599 13.5721 23.309C13.5721 26.8581 16.4516 29.7376 20.0007 29.7376C23.5498 29.7376 26.4292 26.8581 26.4292 23.309C26.4292 19.7599 23.5498 16.8805 20.0007 16.8805ZM20.0007 26.8805C18.0275 26.8805 16.4292 25.2822 16.4292 23.309C16.4292 21.3358 18.0275 19.7376 20.0007 19.7376C21.9739 19.7376 23.5721 21.3358 23.5721 23.309C23.5721 25.2822 21.9739 26.8805 20.0007 26.8805Z"
                        fill="url(#paint0_linear_166_4467)"
                      />
                    </g>
                    <defs>
                      <linearGradient
                        id="paint0_linear_166_4467"
                        x1="20.0028"
                        y1="7.44991"
                        x2="20.0028"
                        y2="47.4499"
                        gradientUnits="userSpaceOnUse"
                      >
                        <stop stop-color="#E9E8EA" />
                        <stop
                          offset="1"
                          stop-color="#E9E8EA"
                          stop-opacity="0"
                        />
                      </linearGradient>
                    </defs>
                  </svg>
