<svg
                    width="40"
                    height="40"
                    viewBox="0 0 40 40"
                    fill="none"
                    xmlns="http://www.w3.org/2000/svg"
                  >
                    <g opacity="0.5">
                      <g clip-path="url(#clip0_166_4440)">
                        <path
                          d="M2.5 4.27759H0.357143C0.160714 4.27759 0 4.4383 0 4.63473V35.349C0 35.5454 0.160714 35.7062 0.357143 35.7062H2.5C2.69643 35.7062 2.85714 35.5454 2.85714 35.349V4.63473C2.85714 4.4383 2.69643 4.27759 2.5 4.27759ZM39.6875 4.27759H37.5446C37.3482 4.27759 37.1875 4.4383 37.1875 4.63473V35.349C37.1875 35.5454 37.3482 35.7062 37.5446 35.7062H39.6875C39.8839 35.7062 40.0446 35.5454 40.0446 35.349V4.63473C40.0446 4.4383 39.8839 4.27759 39.6875 4.27759ZM6.07143 29.9919H11.0714C11.2679 29.9919 11.4286 29.8312 11.4286 29.6347V4.63473C11.4286 4.4383 11.2679 4.27759 11.0714 4.27759H6.07143C5.875 4.27759 5.71429 4.4383 5.71429 4.63473V29.6347C5.71429 29.8312 5.875 29.9919 6.07143 29.9919ZM20.4018 29.9919H22.5446C22.7411 29.9919 22.9018 29.8312 22.9018 29.6347V4.63473C22.9018 4.4383 22.7411 4.27759 22.5446 4.27759H20.4018C20.2054 4.27759 20.0446 4.4383 20.0446 4.63473V29.6347C20.0446 29.8312 20.2054 29.9919 20.4018 29.9919ZM26.0268 29.9919H33.9732C34.1696 29.9919 34.3304 29.8312 34.3304 29.6347V4.63473C34.3304 4.4383 34.1696 4.27759 33.9732 4.27759H26.0268C25.8304 4.27759 25.6696 4.4383 25.6696 4.63473V29.6347C25.6696 29.8312 25.8304 29.9919 26.0268 29.9919ZM14.6429 29.9919H16.7857C16.9821 29.9919 17.1429 29.8312 17.1429 29.6347V4.63473C17.1429 4.4383 16.9821 4.27759 16.7857 4.27759H14.6429C14.4464 4.27759 14.2857 4.4383 14.2857 4.63473V29.6347C14.2857 29.8312 14.4464 29.9919 14.6429 29.9919ZM11.1161 32.849H6.11607C5.91964 32.849 5.75893 33.0097 5.75893 33.2062V35.349C5.75893 35.5454 5.91964 35.7062 6.11607 35.7062H11.1161C11.3125 35.7062 11.4732 35.5454 11.4732 35.349V33.2062C11.4732 33.0097 11.3125 32.849 11.1161 32.849ZM22.5893 32.849H20.4464C20.25 32.849 20.0893 33.0097 20.0893 33.2062V35.349C20.0893 35.5454 20.25 35.7062 20.4464 35.7062H22.5893C22.7857 35.7062 22.9464 35.5454 22.9464 35.349V33.2062C22.9464 33.0097 22.7857 32.849 22.5893 32.849ZM34.0179 32.849H26.0714C25.875 32.849 25.7143 33.0097 25.7143 33.2062V35.349C25.7143 35.5454 25.875 35.7062 26.0714 35.7062H34.0179C34.2143 35.7062 34.375 35.5454 34.375 35.349V33.2062C34.375 33.0097 34.2143 32.849 34.0179 32.849ZM16.8304 32.849H14.6875C14.4911 32.849 14.3304 33.0097 14.3304 33.2062V35.349C14.3304 35.5454 14.4911 35.7062 14.6875 35.7062H16.8304C17.0268 35.7062 17.1875 35.5454 17.1875 35.349V33.2062C17.1875 33.0097 17.0268 32.849 16.8304 32.849Z"
                          fill="url(#paint0_linear_166_4440)"
                        />
                      </g>
                    </g>
                    <defs>
                      <linearGradient
                        id="paint0_linear_166_4440"
                        x1="20.0247"
                        y1="8.94299"
                        x2="20.0247"
                        y2="44.143"
                        gradientUnits="userSpaceOnUse"
                      >
                        <stop stop-color="#E9E8EA" />
                        <stop
                          offset="1"
                          stop-color="#E9E8EA"
                          stop-opacity="0"
                        />
                      </linearGradient>
                      <clipPath id="clip0_166_4440">
                        <rect width="40" height="40" fill="white" />
                      </clipPath>
                    </defs>
                  </svg>
