<svg width="24" height="24" viewBox="0 0 24 24" fill="none" xmlns="http://www.w3.org/2000/svg">
<path d="M22.1385 18.5172L12.6938 5.49664C12.351 5.02521 11.6492 5.02521 11.309 5.49664L1.86168 18.5172C1.83843 18.5492 1.82451 18.587 1.82144 18.6265C1.81838 18.6659 1.8263 18.7055 1.84433 18.7407C1.86236 18.7759 1.88979 18.8055 1.92359 18.8261C1.95738 18.8467 1.99622 18.8575 2.03579 18.8574H4.04472C4.18133 18.8574 4.3099 18.7904 4.39025 18.6806L12.0001 8.19128L19.6099 18.6806C19.6903 18.7904 19.8188 18.8574 19.9554 18.8574H21.9644C22.1385 18.8574 22.2403 18.6591 22.1385 18.5172V18.5172Z" fill="#100F16"/>
</svg>
