<svg width="24" height="24" viewBox="0 0 24 24" fill="none" xmlns="http://www.w3.org/2000/svg">
<path d="M17.6792 4.13242V2.06189C17.6792 1.88242 17.473 1.78332 17.3337 1.89314L5.2587 11.3244C5.15611 11.4042 5.07309 11.5063 5.01599 11.6231C4.95888 11.7398 4.9292 11.8681 4.9292 11.998C4.9292 12.128 4.95888 12.2563 5.01599 12.373C5.07309 12.4898 5.15611 12.5919 5.2587 12.6717L17.3337 22.103C17.4757 22.2128 17.6792 22.1137 17.6792 21.9342V19.8637C17.6792 19.7324 17.6176 19.6065 17.5158 19.5262L7.87299 11.9994L17.5158 4.46992C17.6176 4.38957 17.6792 4.26367 17.6792 4.13242V4.13242Z" fill="#100F16"/>
</svg>
