<svg
                    width="40"
                    height="40"
                    viewBox="0 0 40 40"
                    fill="none"
                    xmlns="http://www.w3.org/2000/svg"
                  >
                    <g opacity="0.5">
                      <path
                        d="M5.86334 25.8385C5.90801 23.0071 6.69658 20.4597 8.11518 18.2572C9.57691 16.0679 11.2006 13.9377 12.5563 11.9019C14.7084 8.58308 16.5326 5.14527 17.648 1.61841C18.0357 0.512108 18.9159 -0.113528 20 0.0171056C21.2081 -0.0570614 22.0447 0.586442 22.3519 1.61845C23.5264 5.43737 25.3992 8.77549 27.4686 11.9019C28.8818 14.2059 30.496 15.9842 31.8847 18.2572C33.3915 20.6518 34.123 23.2424 34.1366 25.8385C34.0506 29.7116 32.5267 33.3121 30.0207 35.8718C27.2256 38.5574 23.5485 39.9747 20 40.0002C16.1288 39.9178 12.5382 38.3813 9.99174 35.8718C7.31171 33.0678 5.88888 29.3904 5.86334 25.8385V25.8385ZM12.0685 28.9661C12.1612 31.0051 13.7811 32.4946 15.5964 32.5191C17.6536 32.428 19.1005 30.7808 19.1243 28.9661C19.1243 28.2488 18.9408 27.6234 18.5738 27.0896C18.1704 26.5647 17.7728 26.0213 17.4479 25.5007C16.9332 24.6601 16.4299 23.8242 16.1719 22.9361C16.1052 22.6025 15.9133 22.4607 15.5964 22.5108C15.2961 22.444 15.0959 22.5858 14.9959 22.9361C14.7261 23.8875 14.2546 24.7261 13.7573 25.5007C13.4076 26.0844 12.9884 26.5386 12.619 27.0896C12.2353 27.64 12.0518 28.2655 12.0685 28.9661V28.9661Z"
                        fill="url(#paint0_linear_166_4494)"
                      />
                    </g>
                    <defs>
                      <linearGradient
                        id="paint0_linear_166_4494"
                        x1="20.0017"
                        y1="5.93782"
                        x2="20.0017"
                        y2="50.7381"
                        gradientUnits="userSpaceOnUse"
                      >
                        <stop stop-color="#E9E8EA" />
                        <stop
                          offset="1"
                          stop-color="#E9E8EA"
                          stop-opacity="0"
                        />
                      </linearGradient>
                    </defs>
                  </svg>
