<svg width="40" height="40" viewBox="0 0 40 40" fill="none" xmlns="http://www.w3.org/2000/svg">
<path d="M21.0748 9.32757H18.9275C18.7311 9.32757 18.5704 9.48829 18.5704 9.68472V21.9749C18.5704 22.091 18.6239 22.1981 18.7177 22.2651L26.0971 27.6535C26.2579 27.7695 26.4811 27.7383 26.5971 27.5776L27.8739 25.8365C27.9945 25.6713 27.9588 25.4481 27.798 25.3365L21.432 20.7338V9.68472C21.432 9.48829 21.2713 9.32757 21.0748 9.32757ZM30.8873 12.6847L37.8873 14.3945C38.1105 14.4481 38.3293 14.2785 38.3293 14.0508L38.365 6.84097C38.365 6.54186 38.0213 6.37222 37.7891 6.55972L30.7534 12.0553C30.7002 12.0964 30.6597 12.1517 30.6366 12.2148C30.6135 12.2779 30.6086 12.3463 30.6226 12.4121C30.6366 12.4778 30.6689 12.5383 30.7157 12.5865C30.7625 12.6348 30.822 12.6688 30.8873 12.6847ZM38.3739 26.1267L35.8427 25.2561C35.7544 25.2259 35.6578 25.2314 35.5736 25.2714C35.4893 25.3115 35.4241 25.3829 35.3918 25.4704C35.307 25.6981 35.2177 25.9213 35.1239 26.1445C34.3293 28.024 33.1909 29.716 31.7355 31.1669C30.2963 32.6105 28.5907 33.7612 26.7132 34.5553C24.7682 35.3776 22.6776 35.7997 20.5659 35.7963C18.432 35.7963 16.365 35.3811 14.4186 34.5553C12.5411 33.7612 10.8355 32.6105 9.39625 31.1669C7.94536 29.716 6.80697 28.024 6.00786 26.1445C5.19008 24.1985 4.77109 22.1081 4.77572 19.9972C4.77572 17.8633 5.19089 15.7919 6.01679 13.8454C6.81143 11.966 7.94982 10.274 9.40518 8.82311C10.8444 7.37944 12.55 6.22872 14.4275 5.43472C16.365 4.60882 18.4364 4.19364 20.5704 4.19364C22.7043 4.19364 24.7713 4.60882 26.7177 5.43472C28.5952 6.22872 30.3008 7.37944 31.74 8.82311C32.1954 9.28293 32.6239 9.76061 33.0168 10.2651L35.6864 8.17579C32.173 3.68472 26.7043 0.796322 20.5614 0.800786C9.865 0.805251 1.27572 9.49275 1.38286 20.1936C1.49 30.707 10.0391 39.1936 20.5704 39.1936C28.8516 39.1936 35.9052 33.9436 38.5927 26.591C38.6596 26.4035 38.5614 26.1936 38.3739 26.1267Z" fill="url(#paint0_linear_503_4581)"/>
<defs>
<linearGradient id="paint0_linear_503_4581" x1="20" y1="6.5" x2="20" y2="49.5" gradientUnits="userSpaceOnUse">
<stop stop-color="#E9E8EA"/>
<stop offset="1" stop-color="#E9E8EA" stop-opacity="0"/>
</linearGradient>
</defs>
</svg>
