<svg width="20" height="20" viewBox="0 0 20 20" fill="none" xmlns="http://www.w3.org/2000/svg">
<path d="M2.93167 12.9192C2.954 11.5035 3.34829 10.2298 4.05759 9.12859C4.78845 8.03396 5.60032 6.96886 6.27817 5.95095C7.3542 4.29154 8.26632 2.57263 8.82402 0.809207C9.01787 0.256054 9.45797 -0.0567642 9.99999 0.00855282C10.604 -0.0285307 11.0223 0.293221 11.176 0.809224C11.7632 2.71868 12.6996 4.38774 13.7343 5.95097C14.4409 7.10297 15.248 7.99211 15.9424 9.1286C16.6958 10.3259 17.0615 11.6212 17.0683 12.9193C17.0253 14.8558 16.2633 16.6561 15.0104 17.9359C13.6128 19.2787 11.7743 19.9873 9.99999 20.0001C8.06439 19.9589 6.2691 19.1907 4.99587 17.9359C3.65585 16.5339 2.94444 14.6952 2.93167 12.9192V12.9192ZM6.03425 14.4831C6.08062 15.5026 6.89054 16.2473 7.79819 16.2595C8.8268 16.214 9.55024 15.3904 9.56214 14.4831C9.56214 14.1244 9.47039 13.8117 9.28691 13.5448C9.08522 13.2823 8.88641 13.0107 8.72397 12.7504C8.46661 12.3301 8.21495 11.9121 8.08594 11.4681C8.05259 11.3012 7.95667 11.2304 7.79819 11.2554C7.64805 11.222 7.54797 11.2929 7.49794 11.4681C7.36304 11.9438 7.1273 12.3631 6.87867 12.7504C6.70379 13.0422 6.49419 13.2693 6.30949 13.5448C6.11765 13.82 6.0259 14.1327 6.03425 14.4831V14.4831Z" fill="black"/>
</svg>
