<svg width="20" height="20" viewBox="0 0 20 20" fill="none" xmlns="http://www.w3.org/2000/svg">
<g clip-path="url(#clip0_1076_3709)">
<path d="M1.25 2.13879H0.178571C0.0803571 2.13879 0 2.21915 0 2.31737V17.6745C0 17.7727 0.0803571 17.8531 0.178571 17.8531H1.25C1.34821 17.8531 1.42857 17.7727 1.42857 17.6745V2.31737C1.42857 2.21915 1.34821 2.13879 1.25 2.13879ZM19.8438 2.13879H18.7723C18.6741 2.13879 18.5938 2.21915 18.5938 2.31737V17.6745C18.5938 17.7727 18.6741 17.8531 18.7723 17.8531H19.8438C19.942 17.8531 20.0223 17.7727 20.0223 17.6745V2.31737C20.0223 2.21915 19.942 2.13879 19.8438 2.13879ZM3.03571 14.9959H5.53571C5.63393 14.9959 5.71429 14.9156 5.71429 14.8174V2.31737C5.71429 2.21915 5.63393 2.13879 5.53571 2.13879H3.03571C2.9375 2.13879 2.85714 2.21915 2.85714 2.31737V14.8174C2.85714 14.9156 2.9375 14.9959 3.03571 14.9959ZM10.2009 14.9959H11.2723C11.3705 14.9959 11.4509 14.9156 11.4509 14.8174V2.31737C11.4509 2.21915 11.3705 2.13879 11.2723 2.13879H10.2009C10.1027 2.13879 10.0223 2.21915 10.0223 2.31737V14.8174C10.0223 14.9156 10.1027 14.9959 10.2009 14.9959ZM13.0134 14.9959H16.9866C17.0848 14.9959 17.1652 14.9156 17.1652 14.8174V2.31737C17.1652 2.21915 17.0848 2.13879 16.9866 2.13879H13.0134C12.9152 2.13879 12.8348 2.21915 12.8348 2.31737V14.8174C12.8348 14.9156 12.9152 14.9959 13.0134 14.9959ZM7.32143 14.9959H8.39286C8.49107 14.9959 8.57143 14.9156 8.57143 14.8174V2.31737C8.57143 2.21915 8.49107 2.13879 8.39286 2.13879H7.32143C7.22321 2.13879 7.14286 2.21915 7.14286 2.31737V14.8174C7.14286 14.9156 7.22321 14.9959 7.32143 14.9959ZM5.55804 16.4245H3.05804C2.95982 16.4245 2.87946 16.5049 2.87946 16.6031V17.6745C2.87946 17.7727 2.95982 17.8531 3.05804 17.8531H5.55804C5.65625 17.8531 5.73661 17.7727 5.73661 17.6745V16.6031C5.73661 16.5049 5.65625 16.4245 5.55804 16.4245ZM11.2946 16.4245H10.2232C10.125 16.4245 10.0446 16.5049 10.0446 16.6031V17.6745C10.0446 17.7727 10.125 17.8531 10.2232 17.8531H11.2946C11.3929 17.8531 11.4732 17.7727 11.4732 17.6745V16.6031C11.4732 16.5049 11.3929 16.4245 11.2946 16.4245ZM17.0089 16.4245H13.0357C12.9375 16.4245 12.8571 16.5049 12.8571 16.6031V17.6745C12.8571 17.7727 12.9375 17.8531 13.0357 17.8531H17.0089C17.1071 17.8531 17.1875 17.7727 17.1875 17.6745V16.6031C17.1875 16.5049 17.1071 16.4245 17.0089 16.4245ZM8.41518 16.4245H7.34375C7.24554 16.4245 7.16518 16.5049 7.16518 16.6031V17.6745C7.16518 17.7727 7.24554 17.8531 7.34375 17.8531H8.41518C8.51339 17.8531 8.59375 17.7727 8.59375 17.6745V16.6031C8.59375 16.5049 8.51339 16.4245 8.41518 16.4245Z" fill="#100F16"/>
</g>
<defs>
<clipPath id="clip0_1076_3709">
<rect width="20" height="20" fill="white"/>
</clipPath>
</defs>
</svg>
