<svg width="20" height="20" viewBox="0 0 20 20" fill="none" xmlns="http://www.w3.org/2000/svg">
<g clip-path="url(#clip0_1076_4563)">
<path d="M17.1423 0H2.85662C2.46153 0 2.14233 0.319196 2.14233 0.714286V19.2857C2.14233 19.6808 2.46153 20 2.85662 20H17.1423C17.5374 20 17.8566 19.6808 17.8566 19.2857V0.714286C17.8566 0.319196 17.5374 0 17.1423 0ZM3.74948 1.60714H16.2495V6.25H3.74948V1.60714ZM16.2495 12.3214H3.74948V7.67857H16.2495V12.3214ZM16.2495 18.3929H3.74948V13.75H16.2495V18.3929ZM9.64233 3.21429H5.53519C5.43698 3.21429 5.35662 3.29464 5.35662 3.39286V4.46429C5.35662 4.5625 5.43698 4.64286 5.53519 4.64286H9.64233C9.74055 4.64286 9.82091 4.5625 9.82091 4.46429V3.39286C9.82091 3.29464 9.74055 3.21429 9.64233 3.21429ZM5.53519 10.7143H9.64233C9.74055 10.7143 9.82091 10.6339 9.82091 10.5357V9.46429C9.82091 9.36607 9.74055 9.28571 9.64233 9.28571H5.53519C5.43698 9.28571 5.35662 9.36607 5.35662 9.46429V10.5357C5.35662 10.6339 5.43698 10.7143 5.53519 10.7143ZM12.8566 16.1607C12.8566 16.3975 12.9507 16.6246 13.1181 16.7921C13.2856 16.9595 13.5127 17.0536 13.7495 17.0536C13.9863 17.0536 14.2134 16.9595 14.3808 16.7921C14.5483 16.6246 14.6423 16.3975 14.6423 16.1607C14.6423 15.9239 14.5483 15.6968 14.3808 15.5294C14.2134 15.3619 13.9863 15.2679 13.7495 15.2679C13.5127 15.2679 13.2856 15.3619 13.1181 15.5294C12.9507 15.6968 12.8566 15.9239 12.8566 16.1607V16.1607Z" fill="#100F16"/>
</g>
<defs>
<clipPath id="clip0_1076_4563">
<rect width="20" height="20" fill="white"/>
</clipPath>
</defs>
</svg>
